<mxfile host="app.diagrams.net" modified="2024-01-15T11:22:28.055Z" agent="Mozilla/5.0 (Windows NT 10.0; Win64; x64) AppleWebKit/537.36 (KHTML, like Gecko) Chrome/120.0.0.0 Safari/537.36 Edg/120.0.0.0" etag="WTigoK_ZMlfpFMq2N0NW" version="22.1.18" type="device">
  <diagram id="C5RBs43oDa-KdzZeNtuy" name="Page-1">
    <mxGraphModel dx="1188" dy="664" grid="1" gridSize="10" guides="1" tooltips="1" connect="1" arrows="1" fold="1" page="1" pageScale="1" pageWidth="827" pageHeight="1169" math="0" shadow="0">
      <root>
        <mxCell id="WIyWlLk6GJQsqaUBKTNV-0" />
        <mxCell id="WIyWlLk6GJQsqaUBKTNV-1" parent="WIyWlLk6GJQsqaUBKTNV-0" />
        <mxCell id="WIyWlLk6GJQsqaUBKTNV-5" value="Da" style="edgeStyle=orthogonalEdgeStyle;rounded=0;html=1;jettySize=auto;orthogonalLoop=1;fontSize=11;endArrow=block;endFill=0;endSize=8;strokeWidth=1;shadow=0;labelBackgroundColor=none;" parent="WIyWlLk6GJQsqaUBKTNV-1" source="WIyWlLk6GJQsqaUBKTNV-6" target="WIyWlLk6GJQsqaUBKTNV-7" edge="1">
          <mxGeometry y="10" relative="1" as="geometry">
            <mxPoint as="offset" />
          </mxGeometry>
        </mxCell>
        <mxCell id="uDtWZkDJvI4aYar6_mcK-8" style="edgeStyle=orthogonalEdgeStyle;rounded=0;orthogonalLoop=1;jettySize=auto;html=1;exitX=0.5;exitY=1;exitDx=0;exitDy=0;entryX=0.5;entryY=0;entryDx=0;entryDy=0;" edge="1" parent="WIyWlLk6GJQsqaUBKTNV-1" source="WIyWlLk6GJQsqaUBKTNV-6" target="WIyWlLk6GJQsqaUBKTNV-10">
          <mxGeometry relative="1" as="geometry" />
        </mxCell>
        <mxCell id="uDtWZkDJvI4aYar6_mcK-9" value="NE" style="edgeLabel;html=1;align=center;verticalAlign=middle;resizable=0;points=[];" vertex="1" connectable="0" parent="uDtWZkDJvI4aYar6_mcK-8">
          <mxGeometry x="-0.054" relative="1" as="geometry">
            <mxPoint as="offset" />
          </mxGeometry>
        </mxCell>
        <mxCell id="WIyWlLk6GJQsqaUBKTNV-6" value="Da li je karakter&lt;br&gt;&lt;b&gt;&lt;font style=&quot;font-size: 24px;&quot;&gt;:&lt;/font&gt;&lt;/b&gt;" style="rhombus;whiteSpace=wrap;html=1;shadow=0;fontFamily=Helvetica;fontSize=12;align=center;strokeWidth=1;spacing=6;spacingTop=-4;" parent="WIyWlLk6GJQsqaUBKTNV-1" vertex="1">
          <mxGeometry x="164.5" y="235" width="140" height="110" as="geometry" />
        </mxCell>
        <mxCell id="uDtWZkDJvI4aYar6_mcK-23" style="edgeStyle=orthogonalEdgeStyle;rounded=0;orthogonalLoop=1;jettySize=auto;html=1;exitX=1;exitY=0.5;exitDx=0;exitDy=0;entryX=0;entryY=0.5;entryDx=0;entryDy=0;" edge="1" parent="WIyWlLk6GJQsqaUBKTNV-1" source="WIyWlLk6GJQsqaUBKTNV-7" target="uDtWZkDJvI4aYar6_mcK-10">
          <mxGeometry relative="1" as="geometry" />
        </mxCell>
        <mxCell id="WIyWlLk6GJQsqaUBKTNV-7" value="Podesi pokazivač buffera na početak" style="rounded=1;whiteSpace=wrap;html=1;fontSize=12;glass=0;strokeWidth=1;shadow=0;" parent="WIyWlLk6GJQsqaUBKTNV-1" vertex="1">
          <mxGeometry x="334.5" y="270" width="120" height="40" as="geometry" />
        </mxCell>
        <mxCell id="uDtWZkDJvI4aYar6_mcK-2" style="edgeStyle=orthogonalEdgeStyle;rounded=0;orthogonalLoop=1;jettySize=auto;html=1;exitX=0.5;exitY=1;exitDx=0;exitDy=0;entryX=0.5;entryY=0;entryDx=0;entryDy=0;" edge="1" parent="WIyWlLk6GJQsqaUBKTNV-1" source="WIyWlLk6GJQsqaUBKTNV-10" target="uDtWZkDJvI4aYar6_mcK-0">
          <mxGeometry relative="1" as="geometry" />
        </mxCell>
        <mxCell id="uDtWZkDJvI4aYar6_mcK-7" value="DA" style="edgeLabel;html=1;align=center;verticalAlign=middle;resizable=0;points=[];" vertex="1" connectable="0" parent="uDtWZkDJvI4aYar6_mcK-2">
          <mxGeometry x="-0.1837" y="1" relative="1" as="geometry">
            <mxPoint as="offset" />
          </mxGeometry>
        </mxCell>
        <mxCell id="uDtWZkDJvI4aYar6_mcK-50" style="edgeStyle=orthogonalEdgeStyle;rounded=0;orthogonalLoop=1;jettySize=auto;html=1;exitX=1;exitY=0.5;exitDx=0;exitDy=0;entryX=0.25;entryY=1;entryDx=0;entryDy=0;" edge="1" parent="WIyWlLk6GJQsqaUBKTNV-1" source="WIyWlLk6GJQsqaUBKTNV-10" target="uDtWZkDJvI4aYar6_mcK-10">
          <mxGeometry relative="1" as="geometry" />
        </mxCell>
        <mxCell id="uDtWZkDJvI4aYar6_mcK-52" value="NE" style="edgeLabel;html=1;align=center;verticalAlign=middle;resizable=0;points=[];" vertex="1" connectable="0" parent="uDtWZkDJvI4aYar6_mcK-50">
          <mxGeometry x="-0.591" y="-1" relative="1" as="geometry">
            <mxPoint as="offset" />
          </mxGeometry>
        </mxCell>
        <mxCell id="WIyWlLk6GJQsqaUBKTNV-10" value="Da li je primio LF (2. terminacioni karakter)" style="rhombus;whiteSpace=wrap;html=1;shadow=0;fontFamily=Helvetica;fontSize=12;align=center;strokeWidth=1;spacing=6;spacingTop=-4;" parent="WIyWlLk6GJQsqaUBKTNV-1" vertex="1">
          <mxGeometry x="156.13" y="390" width="162.25" height="160" as="geometry" />
        </mxCell>
        <mxCell id="uDtWZkDJvI4aYar6_mcK-5" style="edgeStyle=orthogonalEdgeStyle;rounded=0;orthogonalLoop=1;jettySize=auto;html=1;exitX=0.5;exitY=1;exitDx=0;exitDy=0;entryX=0.5;entryY=0;entryDx=0;entryDy=0;" edge="1" parent="WIyWlLk6GJQsqaUBKTNV-1" source="uDtWZkDJvI4aYar6_mcK-0" target="uDtWZkDJvI4aYar6_mcK-48">
          <mxGeometry relative="1" as="geometry">
            <mxPoint x="235" y="820" as="targetPoint" />
            <Array as="points" />
          </mxGeometry>
        </mxCell>
        <mxCell id="uDtWZkDJvI4aYar6_mcK-6" value="Da" style="edgeLabel;html=1;align=center;verticalAlign=middle;resizable=0;points=[];" vertex="1" connectable="0" parent="uDtWZkDJvI4aYar6_mcK-5">
          <mxGeometry x="-0.3714" y="-2" relative="1" as="geometry">
            <mxPoint x="2" as="offset" />
          </mxGeometry>
        </mxCell>
        <mxCell id="uDtWZkDJvI4aYar6_mcK-51" style="edgeStyle=orthogonalEdgeStyle;rounded=0;orthogonalLoop=1;jettySize=auto;html=1;entryX=0.75;entryY=1;entryDx=0;entryDy=0;" edge="1" parent="WIyWlLk6GJQsqaUBKTNV-1" source="uDtWZkDJvI4aYar6_mcK-0" target="uDtWZkDJvI4aYar6_mcK-10">
          <mxGeometry relative="1" as="geometry" />
        </mxCell>
        <mxCell id="uDtWZkDJvI4aYar6_mcK-53" value="NE" style="edgeLabel;html=1;align=center;verticalAlign=middle;resizable=0;points=[];" vertex="1" connectable="0" parent="uDtWZkDJvI4aYar6_mcK-51">
          <mxGeometry x="-0.5522" y="1" relative="1" as="geometry">
            <mxPoint as="offset" />
          </mxGeometry>
        </mxCell>
        <mxCell id="uDtWZkDJvI4aYar6_mcK-0" value="Da li je prethodni karakter CR&lt;br&gt;(1. terminacioni karakter" style="rhombus;whiteSpace=wrap;html=1;" vertex="1" parent="WIyWlLk6GJQsqaUBKTNV-1">
          <mxGeometry x="154.76" y="590" width="165" height="145.5" as="geometry" />
        </mxCell>
        <mxCell id="uDtWZkDJvI4aYar6_mcK-4" value="Parsiraj_poruku()" style="rounded=1;whiteSpace=wrap;html=1;" vertex="1" parent="WIyWlLk6GJQsqaUBKTNV-1">
          <mxGeometry x="177.25" y="880" width="120" height="60" as="geometry" />
        </mxCell>
        <mxCell id="uDtWZkDJvI4aYar6_mcK-40" value="" style="edgeStyle=orthogonalEdgeStyle;rounded=0;orthogonalLoop=1;jettySize=auto;html=1;" edge="1" parent="WIyWlLk6GJQsqaUBKTNV-1" source="uDtWZkDJvI4aYar6_mcK-10" target="uDtWZkDJvI4aYar6_mcK-39">
          <mxGeometry relative="1" as="geometry" />
        </mxCell>
        <mxCell id="uDtWZkDJvI4aYar6_mcK-10" value="Upiši karakter u Bafer" style="rounded=0;whiteSpace=wrap;html=1;" vertex="1" parent="WIyWlLk6GJQsqaUBKTNV-1">
          <mxGeometry x="554.5" y="265" width="120" height="50" as="geometry" />
        </mxCell>
        <mxCell id="uDtWZkDJvI4aYar6_mcK-16" style="edgeStyle=orthogonalEdgeStyle;rounded=0;orthogonalLoop=1;jettySize=auto;html=1;exitX=0.5;exitY=1;exitDx=0;exitDy=0;entryX=0.5;entryY=0;entryDx=0;entryDy=0;" edge="1" parent="WIyWlLk6GJQsqaUBKTNV-1" source="uDtWZkDJvI4aYar6_mcK-15" target="WIyWlLk6GJQsqaUBKTNV-6">
          <mxGeometry relative="1" as="geometry" />
        </mxCell>
        <mxCell id="uDtWZkDJvI4aYar6_mcK-17" value="DA" style="edgeLabel;html=1;align=center;verticalAlign=middle;resizable=0;points=[];" vertex="1" connectable="0" parent="uDtWZkDJvI4aYar6_mcK-16">
          <mxGeometry x="-0.0718" y="1" relative="1" as="geometry">
            <mxPoint as="offset" />
          </mxGeometry>
        </mxCell>
        <mxCell id="uDtWZkDJvI4aYar6_mcK-29" value="" style="edgeStyle=orthogonalEdgeStyle;rounded=0;orthogonalLoop=1;jettySize=auto;html=1;" edge="1" parent="WIyWlLk6GJQsqaUBKTNV-1" source="uDtWZkDJvI4aYar6_mcK-15" target="uDtWZkDJvI4aYar6_mcK-28">
          <mxGeometry relative="1" as="geometry" />
        </mxCell>
        <mxCell id="uDtWZkDJvI4aYar6_mcK-38" value="NE" style="edgeLabel;html=1;align=center;verticalAlign=middle;resizable=0;points=[];" vertex="1" connectable="0" parent="uDtWZkDJvI4aYar6_mcK-29">
          <mxGeometry x="-0.1389" y="-1" relative="1" as="geometry">
            <mxPoint as="offset" />
          </mxGeometry>
        </mxCell>
        <mxCell id="uDtWZkDJvI4aYar6_mcK-15" value="Da li je primio karakter" style="rhombus;whiteSpace=wrap;html=1;" vertex="1" parent="WIyWlLk6GJQsqaUBKTNV-1">
          <mxGeometry x="174.5" y="75" width="125.5" height="110" as="geometry" />
        </mxCell>
        <mxCell id="uDtWZkDJvI4aYar6_mcK-34" value="" style="edgeStyle=orthogonalEdgeStyle;rounded=0;orthogonalLoop=1;jettySize=auto;html=1;" edge="1" parent="WIyWlLk6GJQsqaUBKTNV-1" source="uDtWZkDJvI4aYar6_mcK-28" target="uDtWZkDJvI4aYar6_mcK-33">
          <mxGeometry relative="1" as="geometry" />
        </mxCell>
        <mxCell id="uDtWZkDJvI4aYar6_mcK-28" value="" style="shape=waypoint;sketch=0;size=6;pointerEvents=1;points=[];fillColor=default;resizable=0;rotatable=0;perimeter=centerPerimeter;snapToPoint=1;" vertex="1" parent="WIyWlLk6GJQsqaUBKTNV-1">
          <mxGeometry x="64.5" y="120" width="20" height="20" as="geometry" />
        </mxCell>
        <mxCell id="uDtWZkDJvI4aYar6_mcK-36" value="" style="edgeStyle=orthogonalEdgeStyle;rounded=0;orthogonalLoop=1;jettySize=auto;html=1;" edge="1" parent="WIyWlLk6GJQsqaUBKTNV-1" source="uDtWZkDJvI4aYar6_mcK-33" target="uDtWZkDJvI4aYar6_mcK-35">
          <mxGeometry relative="1" as="geometry" />
        </mxCell>
        <mxCell id="uDtWZkDJvI4aYar6_mcK-33" value="" style="shape=waypoint;sketch=0;size=6;pointerEvents=1;points=[];fillColor=default;resizable=0;rotatable=0;perimeter=centerPerimeter;snapToPoint=1;" vertex="1" parent="WIyWlLk6GJQsqaUBKTNV-1">
          <mxGeometry x="64.5" y="20" width="20" height="20" as="geometry" />
        </mxCell>
        <mxCell id="uDtWZkDJvI4aYar6_mcK-37" style="edgeStyle=orthogonalEdgeStyle;rounded=0;orthogonalLoop=1;jettySize=auto;html=1;entryX=0.5;entryY=0;entryDx=0;entryDy=0;" edge="1" parent="WIyWlLk6GJQsqaUBKTNV-1" source="uDtWZkDJvI4aYar6_mcK-35" target="uDtWZkDJvI4aYar6_mcK-15">
          <mxGeometry relative="1" as="geometry" />
        </mxCell>
        <mxCell id="uDtWZkDJvI4aYar6_mcK-35" value="" style="shape=waypoint;sketch=0;size=6;pointerEvents=1;points=[];fillColor=default;resizable=0;rotatable=0;perimeter=centerPerimeter;snapToPoint=1;" vertex="1" parent="WIyWlLk6GJQsqaUBKTNV-1">
          <mxGeometry x="224.5" y="20" width="20" height="20" as="geometry" />
        </mxCell>
        <mxCell id="uDtWZkDJvI4aYar6_mcK-39" value="" style="shape=waypoint;sketch=0;size=6;pointerEvents=1;points=[];fillColor=default;resizable=0;rotatable=0;perimeter=centerPerimeter;snapToPoint=1;rounded=0;" vertex="1" parent="WIyWlLk6GJQsqaUBKTNV-1">
          <mxGeometry x="604.5" y="20" width="20" height="20" as="geometry" />
        </mxCell>
        <mxCell id="uDtWZkDJvI4aYar6_mcK-41" style="edgeStyle=orthogonalEdgeStyle;rounded=0;orthogonalLoop=1;jettySize=auto;html=1;entryX=0.667;entryY=0.717;entryDx=0;entryDy=0;entryPerimeter=0;" edge="1" parent="WIyWlLk6GJQsqaUBKTNV-1" source="uDtWZkDJvI4aYar6_mcK-39" target="uDtWZkDJvI4aYar6_mcK-35">
          <mxGeometry relative="1" as="geometry" />
        </mxCell>
        <mxCell id="uDtWZkDJvI4aYar6_mcK-49" style="edgeStyle=orthogonalEdgeStyle;rounded=0;orthogonalLoop=1;jettySize=auto;html=1;entryX=0.5;entryY=0;entryDx=0;entryDy=0;" edge="1" parent="WIyWlLk6GJQsqaUBKTNV-1" source="uDtWZkDJvI4aYar6_mcK-48" target="uDtWZkDJvI4aYar6_mcK-4">
          <mxGeometry relative="1" as="geometry" />
        </mxCell>
        <mxCell id="uDtWZkDJvI4aYar6_mcK-48" value="Upiši karakter u Bafer" style="rounded=0;whiteSpace=wrap;html=1;" vertex="1" parent="WIyWlLk6GJQsqaUBKTNV-1">
          <mxGeometry x="177.26" y="780" width="120" height="50" as="geometry" />
        </mxCell>
      </root>
    </mxGraphModel>
  </diagram>
</mxfile>
